<mxfile host="app.diagrams.net" agent="Mozilla/5.0 (Macintosh; Intel Mac OS X 10_15_7) AppleWebKit/537.36 (KHTML, like Gecko) Chrome/133.0.0.0 Safari/537.36" version="26.0.15" pages="3">
  <diagram name="Page-1" id="R1Zm-C9BT86NUQ-tbebm">
    <mxGraphModel grid="1" page="0" gridSize="10" guides="1" tooltips="1" connect="1" arrows="1" fold="1" pageScale="1" pageWidth="850" pageHeight="1100" background="none" math="0" shadow="0">
      <root>
        <mxCell id="0" />
        <mxCell id="1" parent="0" />
        <mxCell id="BhE8mrxoXwVcs0QpaUs0-22" value="&lt;font style=&quot;font-size: 15px;&quot;&gt;Softmax&lt;/font&gt;" style="rounded=1;whiteSpace=wrap;html=1;fillColor=#bac8d3;strokeColor=#23445d;" vertex="1" parent="1">
          <mxGeometry x="140" y="230" width="120" height="30" as="geometry" />
        </mxCell>
        <mxCell id="BhE8mrxoXwVcs0QpaUs0-23" value="&lt;font style=&quot;font-size: 15px;&quot;&gt;FC&lt;/font&gt;" style="rounded=1;whiteSpace=wrap;html=1;fillColor=#f8cecc;strokeColor=#b85450;" vertex="1" parent="1">
          <mxGeometry x="140" y="290" width="120" height="30" as="geometry" />
        </mxCell>
        <mxCell id="BhE8mrxoXwVcs0QpaUs0-24" value="&lt;font style=&quot;font-size: 15px;&quot;&gt;LayerNorm&lt;/font&gt;" style="rounded=1;whiteSpace=wrap;html=1;fillColor=#008a00;fontColor=#ffffff;strokeColor=#005700;" vertex="1" parent="1">
          <mxGeometry x="140" y="350" width="120" height="30" as="geometry" />
        </mxCell>
        <mxCell id="BhE8mrxoXwVcs0QpaUs0-26" value="&lt;span style=&quot;font-size: 15px;&quot;&gt;Transformer block #1&lt;/span&gt;" style="rounded=1;whiteSpace=wrap;html=1;fillColor=#ffe6cc;strokeColor=#d79b00;" vertex="1" parent="1">
          <mxGeometry x="140" y="571" width="120" height="50" as="geometry" />
        </mxCell>
        <mxCell id="BhE8mrxoXwVcs0QpaUs0-27" value="&lt;font style=&quot;font-size: 15px;&quot;&gt;Dropout&lt;/font&gt;" style="rounded=1;whiteSpace=wrap;html=1;fillColor=#dae8fc;strokeColor=#6c8ebf;" vertex="1" parent="1">
          <mxGeometry x="140" y="651" width="120" height="30" as="geometry" />
        </mxCell>
        <mxCell id="BhE8mrxoXwVcs0QpaUs0-28" value="" style="endArrow=classic;html=1;rounded=0;" edge="1" parent="1">
          <mxGeometry width="50" height="50" relative="1" as="geometry">
            <mxPoint x="200" y="651" as="sourcePoint" />
            <mxPoint x="199.5" y="621" as="targetPoint" />
            <Array as="points" />
          </mxGeometry>
        </mxCell>
        <mxCell id="BhE8mrxoXwVcs0QpaUs0-32" value="" style="endArrow=classic;html=1;rounded=0;" edge="1" parent="1">
          <mxGeometry width="50" height="50" relative="1" as="geometry">
            <mxPoint x="198" y="349" as="sourcePoint" />
            <mxPoint x="197.5" y="319" as="targetPoint" />
            <Array as="points" />
          </mxGeometry>
        </mxCell>
        <mxCell id="BhE8mrxoXwVcs0QpaUs0-33" value="" style="endArrow=classic;html=1;rounded=0;" edge="1" parent="1">
          <mxGeometry width="50" height="50" relative="1" as="geometry">
            <mxPoint x="198" y="289" as="sourcePoint" />
            <mxPoint x="197.5" y="259" as="targetPoint" />
            <Array as="points" />
          </mxGeometry>
        </mxCell>
        <mxCell id="BhE8mrxoXwVcs0QpaUs0-34" value="" style="endArrow=classic;html=1;rounded=0;" edge="1" parent="1">
          <mxGeometry width="50" height="50" relative="1" as="geometry">
            <mxPoint x="200" y="711" as="sourcePoint" />
            <mxPoint x="199.5" y="681" as="targetPoint" />
            <Array as="points" />
          </mxGeometry>
        </mxCell>
        <mxCell id="BhE8mrxoXwVcs0QpaUs0-37" value="" style="endArrow=classic;html=1;rounded=0;" edge="1" parent="1">
          <mxGeometry width="50" height="50" relative="1" as="geometry">
            <mxPoint x="198" y="230" as="sourcePoint" />
            <mxPoint x="197.5" y="200" as="targetPoint" />
            <Array as="points" />
          </mxGeometry>
        </mxCell>
        <mxCell id="BhE8mrxoXwVcs0QpaUs0-42" value="" style="shape=waypoint;sketch=0;fillStyle=solid;size=6;pointerEvents=1;points=[];fillColor=none;resizable=0;rotatable=0;perimeter=centerPerimeter;snapToPoint=1;" vertex="1" parent="1">
          <mxGeometry x="189" y="493" width="20" height="20" as="geometry" />
        </mxCell>
        <mxCell id="BhE8mrxoXwVcs0QpaUs0-43" value="" style="shape=waypoint;sketch=0;fillStyle=solid;size=6;pointerEvents=1;points=[];fillColor=none;resizable=0;rotatable=0;perimeter=centerPerimeter;snapToPoint=1;" vertex="1" parent="1">
          <mxGeometry x="189" y="503" width="20" height="20" as="geometry" />
        </mxCell>
        <mxCell id="BhE8mrxoXwVcs0QpaUs0-44" value="" style="shape=waypoint;sketch=0;fillStyle=solid;size=6;pointerEvents=1;points=[];fillColor=none;resizable=0;rotatable=0;perimeter=centerPerimeter;snapToPoint=1;" vertex="1" parent="1">
          <mxGeometry x="189" y="513" width="20" height="20" as="geometry" />
        </mxCell>
        <mxCell id="BhE8mrxoXwVcs0QpaUs0-47" value="" style="endArrow=classic;html=1;rounded=0;" edge="1" parent="1">
          <mxGeometry width="50" height="50" relative="1" as="geometry">
            <mxPoint x="200" y="571" as="sourcePoint" />
            <mxPoint x="199.5" y="541" as="targetPoint" />
            <Array as="points" />
          </mxGeometry>
        </mxCell>
        <mxCell id="BhE8mrxoXwVcs0QpaUs0-48" value="" style="endArrow=classic;html=1;rounded=0;" edge="1" parent="1">
          <mxGeometry width="50" height="50" relative="1" as="geometry">
            <mxPoint x="200" y="491" as="sourcePoint" />
            <mxPoint x="199.5" y="461" as="targetPoint" />
            <Array as="points" />
          </mxGeometry>
        </mxCell>
        <mxCell id="BhE8mrxoXwVcs0QpaUs0-49" value="&lt;span style=&quot;font-size: 15px;&quot;&gt;Transformer block #N&lt;/span&gt;" style="rounded=1;whiteSpace=wrap;html=1;fillColor=#ffe6cc;strokeColor=#d79b00;" vertex="1" parent="1">
          <mxGeometry x="140" y="410" width="120" height="50" as="geometry" />
        </mxCell>
        <mxCell id="BhE8mrxoXwVcs0QpaUs0-50" value="" style="shape=curlyBracket;whiteSpace=wrap;html=1;rounded=1;labelPosition=left;verticalLabelPosition=middle;align=right;verticalAlign=middle;" vertex="1" parent="1">
          <mxGeometry x="105" y="445" width="20" height="140" as="geometry" />
        </mxCell>
        <mxCell id="BhE8mrxoXwVcs0QpaUs0-51" value="" style="verticalLabelPosition=bottom;verticalAlign=top;html=1;shape=mxgraph.flowchart.summing_function;" vertex="1" parent="1">
          <mxGeometry x="190" y="712" width="20" height="20" as="geometry" />
        </mxCell>
        <mxCell id="BhE8mrxoXwVcs0QpaUs0-52" value="" style="endArrow=classic;html=1;rounded=0;" edge="1" parent="1">
          <mxGeometry width="50" height="50" relative="1" as="geometry">
            <mxPoint x="200" y="761" as="sourcePoint" />
            <mxPoint x="199.5" y="731" as="targetPoint" />
            <Array as="points" />
          </mxGeometry>
        </mxCell>
        <mxCell id="BhE8mrxoXwVcs0QpaUs0-54" value="&lt;span style=&quot;font-size: 15px;&quot;&gt;Positional embedding&lt;/span&gt;" style="rounded=1;whiteSpace=wrap;html=1;fillColor=#e3c800;strokeColor=#B09500;fontColor=#000000;" vertex="1" parent="1">
          <mxGeometry x="290" y="697" width="120" height="50" as="geometry" />
        </mxCell>
        <mxCell id="BhE8mrxoXwVcs0QpaUs0-55" value="&lt;span style=&quot;font-size: 15px;&quot;&gt;Token embedding&lt;/span&gt;" style="rounded=1;whiteSpace=wrap;html=1;fillColor=#e3c800;strokeColor=#B09500;fontColor=#000000;" vertex="1" parent="1">
          <mxGeometry x="140" y="757" width="120" height="50" as="geometry" />
        </mxCell>
        <mxCell id="BhE8mrxoXwVcs0QpaUs0-56" value="" style="endArrow=classic;html=1;rounded=0;" edge="1" parent="1">
          <mxGeometry width="50" height="50" relative="1" as="geometry">
            <mxPoint x="290" y="722" as="sourcePoint" />
            <mxPoint x="209" y="721.5" as="targetPoint" />
          </mxGeometry>
        </mxCell>
        <mxCell id="BhE8mrxoXwVcs0QpaUs0-57" value="" style="endArrow=classic;html=1;rounded=0;" edge="1" parent="1">
          <mxGeometry width="50" height="50" relative="1" as="geometry">
            <mxPoint x="200" y="411" as="sourcePoint" />
            <mxPoint x="199.5" y="381" as="targetPoint" />
            <Array as="points" />
          </mxGeometry>
        </mxCell>
        <mxCell id="BhE8mrxoXwVcs0QpaUs0-58" value="" style="endArrow=none;dashed=1;html=1;rounded=0;entryX=0.067;entryY=0.015;entryDx=0;entryDy=0;entryPerimeter=0;" edge="1" parent="1" target="44SxVRhPKuFCa8DzXIv4-29">
          <mxGeometry width="50" height="50" relative="1" as="geometry">
            <mxPoint x="260" y="410" as="sourcePoint" />
            <mxPoint x="511.0079999999998" y="259.01" as="targetPoint" />
          </mxGeometry>
        </mxCell>
        <mxCell id="BhE8mrxoXwVcs0QpaUs0-59" value="" style="endArrow=none;dashed=1;html=1;rounded=0;exitX=1;exitY=1;exitDx=0;exitDy=0;entryX=0.03;entryY=0.962;entryDx=0;entryDy=0;entryPerimeter=0;" edge="1" parent="1" source="BhE8mrxoXwVcs0QpaUs0-49" target="44SxVRhPKuFCa8DzXIv4-29">
          <mxGeometry width="50" height="50" relative="1" as="geometry">
            <mxPoint x="440" y="680" as="sourcePoint" />
            <mxPoint x="509.93600000000015" y="769.9299999999998" as="targetPoint" />
          </mxGeometry>
        </mxCell>
        <mxCell id="BhE8mrxoXwVcs0QpaUs0-62" value="" style="endArrow=classic;html=1;rounded=0;" edge="1" parent="1">
          <mxGeometry width="50" height="50" relative="1" as="geometry">
            <mxPoint x="200" y="837" as="sourcePoint" />
            <mxPoint x="199.5" y="807" as="targetPoint" />
            <Array as="points" />
          </mxGeometry>
        </mxCell>
        <mxCell id="BhE8mrxoXwVcs0QpaUs0-63" value="&lt;b&gt;Input&lt;/b&gt;" style="text;strokeColor=none;align=center;fillColor=none;html=1;verticalAlign=middle;whiteSpace=wrap;rounded=0;fontSize=15;" vertex="1" parent="1">
          <mxGeometry x="145" y="836" width="110" height="30" as="geometry" />
        </mxCell>
        <mxCell id="BhE8mrxoXwVcs0QpaUs0-64" value="&lt;b&gt;Output&lt;/b&gt;" style="text;strokeColor=none;align=center;fillColor=none;html=1;verticalAlign=middle;whiteSpace=wrap;rounded=0;fontSize=15;" vertex="1" parent="1">
          <mxGeometry x="145" y="162" width="110" height="30" as="geometry" />
        </mxCell>
        <mxCell id="BhE8mrxoXwVcs0QpaUs0-66" value="N" style="text;strokeColor=none;align=center;fillColor=none;html=1;verticalAlign=middle;whiteSpace=wrap;rounded=0;fontSize=15;" vertex="1" parent="1">
          <mxGeometry x="40" y="499" width="110" height="30" as="geometry" />
        </mxCell>
        <mxCell id="44SxVRhPKuFCa8DzXIv4-29" value="" style="rounded=1;whiteSpace=wrap;html=1;fillColor=#ffe6cc;strokeColor=#d79b00;" vertex="1" parent="1">
          <mxGeometry x="501" y="252" width="268" height="530" as="geometry" />
        </mxCell>
        <mxCell id="44SxVRhPKuFCa8DzXIv4-30" value="&lt;font style=&quot;font-size: 15px;&quot;&gt;Dropout&lt;/font&gt;" style="rounded=1;whiteSpace=wrap;html=1;fillColor=#dae8fc;strokeColor=#6c8ebf;" vertex="1" parent="1">
          <mxGeometry x="575" y="309" width="120" height="30" as="geometry" />
        </mxCell>
        <mxCell id="44SxVRhPKuFCa8DzXIv4-31" value="&lt;font style=&quot;font-size: 15px;&quot;&gt;FC&lt;/font&gt;" style="rounded=1;whiteSpace=wrap;html=1;fillColor=#f8cecc;strokeColor=#b85450;" vertex="1" parent="1">
          <mxGeometry x="575" y="432" width="120" height="30" as="geometry" />
        </mxCell>
        <mxCell id="44SxVRhPKuFCa8DzXIv4-32" value="&lt;font style=&quot;font-size: 15px;&quot;&gt;LayerNorm&lt;/font&gt;" style="rounded=1;whiteSpace=wrap;html=1;fillColor=#008a00;fontColor=#ffffff;strokeColor=#005700;" vertex="1" parent="1">
          <mxGeometry x="575" y="492" width="120" height="30" as="geometry" />
        </mxCell>
        <mxCell id="44SxVRhPKuFCa8DzXIv4-33" value="&lt;font style=&quot;font-size: 15px;&quot;&gt;Dropout&lt;/font&gt;" style="rounded=1;whiteSpace=wrap;html=1;fillColor=#dae8fc;strokeColor=#6c8ebf;" vertex="1" parent="1">
          <mxGeometry x="575" y="582" width="120" height="30" as="geometry" />
        </mxCell>
        <mxCell id="44SxVRhPKuFCa8DzXIv4-34" value="&lt;font style=&quot;font-size: 15px;&quot;&gt;Multi-Head&lt;/font&gt;&lt;div&gt;&lt;font style=&quot;font-size: 15px;&quot;&gt;Attention&lt;/font&gt;&lt;/div&gt;" style="rounded=1;whiteSpace=wrap;html=1;fillColor=#d5e8d4;strokeColor=#82b366;" vertex="1" parent="1">
          <mxGeometry x="575" y="642" width="120" height="50" as="geometry" />
        </mxCell>
        <mxCell id="44SxVRhPKuFCa8DzXIv4-35" value="&lt;font style=&quot;font-size: 15px;&quot;&gt;LayerNorm&lt;/font&gt;" style="rounded=1;whiteSpace=wrap;html=1;fillColor=#008a00;fontColor=#ffffff;strokeColor=#005700;" vertex="1" parent="1">
          <mxGeometry x="575" y="722" width="120" height="30" as="geometry" />
        </mxCell>
        <mxCell id="44SxVRhPKuFCa8DzXIv4-36" value="" style="endArrow=classic;html=1;rounded=0;" edge="1" parent="1">
          <mxGeometry width="50" height="50" relative="1" as="geometry">
            <mxPoint x="635" y="722" as="sourcePoint" />
            <mxPoint x="634.5" y="692" as="targetPoint" />
            <Array as="points" />
          </mxGeometry>
        </mxCell>
        <mxCell id="44SxVRhPKuFCa8DzXIv4-37" value="" style="endArrow=classic;html=1;rounded=0;" edge="1" parent="1">
          <mxGeometry width="50" height="50" relative="1" as="geometry">
            <mxPoint x="635" y="642" as="sourcePoint" />
            <mxPoint x="634.5" y="612" as="targetPoint" />
            <Array as="points" />
          </mxGeometry>
        </mxCell>
        <mxCell id="44SxVRhPKuFCa8DzXIv4-38" value="" style="endArrow=classic;html=1;rounded=0;" edge="1" parent="1">
          <mxGeometry width="50" height="50" relative="1" as="geometry">
            <mxPoint x="634" y="582" as="sourcePoint" />
            <mxPoint x="633.5" y="562" as="targetPoint" />
            <Array as="points" />
          </mxGeometry>
        </mxCell>
        <mxCell id="44SxVRhPKuFCa8DzXIv4-39" value="" style="endArrow=classic;html=1;rounded=0;" edge="1" parent="1">
          <mxGeometry width="50" height="50" relative="1" as="geometry">
            <mxPoint x="633" y="542" as="sourcePoint" />
            <mxPoint x="632.5" y="522" as="targetPoint" />
            <Array as="points" />
          </mxGeometry>
        </mxCell>
        <mxCell id="44SxVRhPKuFCa8DzXIv4-40" value="" style="endArrow=classic;html=1;rounded=0;" edge="1" parent="1">
          <mxGeometry width="50" height="50" relative="1" as="geometry">
            <mxPoint x="633" y="491" as="sourcePoint" />
            <mxPoint x="632.5" y="461" as="targetPoint" />
            <Array as="points" />
          </mxGeometry>
        </mxCell>
        <mxCell id="44SxVRhPKuFCa8DzXIv4-41" value="" style="endArrow=classic;html=1;rounded=0;" edge="1" parent="1">
          <mxGeometry width="50" height="50" relative="1" as="geometry">
            <mxPoint x="633" y="431" as="sourcePoint" />
            <mxPoint x="632.5" y="401" as="targetPoint" />
            <Array as="points" />
          </mxGeometry>
        </mxCell>
        <mxCell id="44SxVRhPKuFCa8DzXIv4-42" value="" style="endArrow=classic;html=1;rounded=0;exitX=0.5;exitY=0;exitDx=0;exitDy=0;" edge="1" parent="1" source="44SxVRhPKuFCa8DzXIv4-52">
          <mxGeometry width="50" height="50" relative="1" as="geometry">
            <mxPoint x="635" y="792" as="sourcePoint" />
            <mxPoint x="634.5" y="752" as="targetPoint" />
            <Array as="points" />
          </mxGeometry>
        </mxCell>
        <mxCell id="44SxVRhPKuFCa8DzXIv4-43" value="" style="endArrow=classic;html=1;rounded=0;" edge="1" parent="1">
          <mxGeometry width="50" height="50" relative="1" as="geometry">
            <mxPoint x="632" y="260" as="sourcePoint" />
            <mxPoint x="631.5" y="230" as="targetPoint" />
            <Array as="points" />
          </mxGeometry>
        </mxCell>
        <mxCell id="44SxVRhPKuFCa8DzXIv4-44" value="" style="verticalLabelPosition=bottom;verticalAlign=top;html=1;shape=mxgraph.flowchart.summing_function;" vertex="1" parent="1">
          <mxGeometry x="623" y="542" width="20" height="20" as="geometry" />
        </mxCell>
        <mxCell id="44SxVRhPKuFCa8DzXIv4-45" value="" style="endArrow=classic;html=1;rounded=0;" edge="1" parent="1">
          <mxGeometry width="50" height="50" relative="1" as="geometry">
            <mxPoint x="736" y="552" as="sourcePoint" />
            <mxPoint x="644" y="551.5" as="targetPoint" />
          </mxGeometry>
        </mxCell>
        <mxCell id="44SxVRhPKuFCa8DzXIv4-46" value="" style="endArrow=none;html=1;rounded=0;" edge="1" parent="1">
          <mxGeometry width="50" height="50" relative="1" as="geometry">
            <mxPoint x="735" y="766" as="sourcePoint" />
            <mxPoint x="735" y="552" as="targetPoint" />
          </mxGeometry>
        </mxCell>
        <mxCell id="44SxVRhPKuFCa8DzXIv4-47" value="" style="endArrow=none;html=1;rounded=0;" edge="1" parent="1">
          <mxGeometry width="50" height="50" relative="1" as="geometry">
            <mxPoint x="635" y="765" as="sourcePoint" />
            <mxPoint x="715" y="765" as="targetPoint" />
            <Array as="points">
              <mxPoint x="715" y="765" />
              <mxPoint x="735" y="765" />
            </Array>
          </mxGeometry>
        </mxCell>
        <mxCell id="44SxVRhPKuFCa8DzXIv4-48" value="" style="verticalLabelPosition=bottom;verticalAlign=top;html=1;shape=mxgraph.flowchart.summing_function;" vertex="1" parent="1">
          <mxGeometry x="622" y="260" width="20" height="20" as="geometry" />
        </mxCell>
        <mxCell id="44SxVRhPKuFCa8DzXIv4-49" value="" style="endArrow=classic;html=1;rounded=0;" edge="1" parent="1">
          <mxGeometry width="50" height="50" relative="1" as="geometry">
            <mxPoint x="734" y="270" as="sourcePoint" />
            <mxPoint x="642" y="269.5" as="targetPoint" />
          </mxGeometry>
        </mxCell>
        <mxCell id="44SxVRhPKuFCa8DzXIv4-50" value="" style="endArrow=classic;html=1;rounded=0;" edge="1" parent="1">
          <mxGeometry width="50" height="50" relative="1" as="geometry">
            <mxPoint x="633" y="309" as="sourcePoint" />
            <mxPoint x="632.5" y="279" as="targetPoint" />
            <Array as="points" />
          </mxGeometry>
        </mxCell>
        <mxCell id="44SxVRhPKuFCa8DzXIv4-51" value="" style="endArrow=none;html=1;rounded=0;" edge="1" parent="1">
          <mxGeometry width="50" height="50" relative="1" as="geometry">
            <mxPoint x="634" y="538" as="sourcePoint" />
            <mxPoint x="714" y="538" as="targetPoint" />
            <Array as="points">
              <mxPoint x="714" y="538" />
              <mxPoint x="734" y="538" />
            </Array>
          </mxGeometry>
        </mxCell>
        <mxCell id="44SxVRhPKuFCa8DzXIv4-52" value="&lt;b&gt;Block input&lt;/b&gt;" style="text;strokeColor=none;align=center;fillColor=none;html=1;verticalAlign=middle;whiteSpace=wrap;rounded=0;fontSize=15;" vertex="1" parent="1">
          <mxGeometry x="580" y="794" width="110" height="30" as="geometry" />
        </mxCell>
        <mxCell id="44SxVRhPKuFCa8DzXIv4-53" value="&lt;b&gt;Block output&lt;/b&gt;" style="text;strokeColor=none;align=center;fillColor=none;html=1;verticalAlign=middle;whiteSpace=wrap;rounded=0;fontSize=15;" vertex="1" parent="1">
          <mxGeometry x="580" y="201" width="110" height="30" as="geometry" />
        </mxCell>
        <mxCell id="44SxVRhPKuFCa8DzXIv4-54" value="&lt;font style=&quot;font-size: 15px;&quot;&gt;FC&lt;/font&gt;" style="rounded=1;whiteSpace=wrap;html=1;fillColor=#f8cecc;strokeColor=#b85450;" vertex="1" parent="1">
          <mxGeometry x="575" y="370" width="120" height="30" as="geometry" />
        </mxCell>
        <mxCell id="44SxVRhPKuFCa8DzXIv4-55" value="" style="endArrow=classic;html=1;rounded=0;" edge="1" parent="1">
          <mxGeometry width="50" height="50" relative="1" as="geometry">
            <mxPoint x="633" y="369" as="sourcePoint" />
            <mxPoint x="632.5" y="339" as="targetPoint" />
            <Array as="points" />
          </mxGeometry>
        </mxCell>
        <mxCell id="44SxVRhPKuFCa8DzXIv4-56" value="" style="endArrow=none;html=1;rounded=0;" edge="1" parent="1">
          <mxGeometry width="50" height="50" relative="1" as="geometry">
            <mxPoint x="734" y="269" as="sourcePoint" />
            <mxPoint x="734" y="539" as="targetPoint" />
          </mxGeometry>
        </mxCell>
      </root>
    </mxGraphModel>
  </diagram>
  <diagram id="MrN4MtMyTiu2hYTv3j9a" name="Page-2">
    <mxGraphModel grid="1" page="1" gridSize="10" guides="1" tooltips="1" connect="1" arrows="1" fold="1" pageScale="1" pageWidth="850" pageHeight="1100" math="0" shadow="0">
      <root>
        <mxCell id="0" />
        <mxCell id="1" parent="0" />
        <mxCell id="uRRemZE__AZd1bPF2sze-1" value="&lt;font style=&quot;font-size: 15px;&quot;&gt;Softmax&lt;/font&gt;" style="rounded=1;whiteSpace=wrap;html=1;fillColor=#bac8d3;strokeColor=#23445d;" vertex="1" parent="1">
          <mxGeometry x="140" y="230" width="120" height="30" as="geometry" />
        </mxCell>
        <mxCell id="uRRemZE__AZd1bPF2sze-2" value="&lt;font style=&quot;font-size: 15px;&quot;&gt;FC&lt;/font&gt;" style="rounded=1;whiteSpace=wrap;html=1;fillColor=#f8cecc;strokeColor=#b85450;" vertex="1" parent="1">
          <mxGeometry x="140" y="290" width="120" height="30" as="geometry" />
        </mxCell>
        <mxCell id="uRRemZE__AZd1bPF2sze-3" value="&lt;font style=&quot;font-size: 15px;&quot;&gt;LayerNorm&lt;/font&gt;" style="rounded=1;whiteSpace=wrap;html=1;fillColor=#008a00;fontColor=#ffffff;strokeColor=#005700;" vertex="1" parent="1">
          <mxGeometry x="140" y="350" width="120" height="30" as="geometry" />
        </mxCell>
        <mxCell id="uRRemZE__AZd1bPF2sze-4" value="&lt;span style=&quot;font-size: 15px;&quot;&gt;Transformer block #1&lt;/span&gt;" style="rounded=1;whiteSpace=wrap;html=1;fillColor=#ffe6cc;strokeColor=#d79b00;" vertex="1" parent="1">
          <mxGeometry x="140" y="571" width="120" height="50" as="geometry" />
        </mxCell>
        <mxCell id="uRRemZE__AZd1bPF2sze-5" value="&lt;font style=&quot;font-size: 15px;&quot;&gt;Dropout&lt;/font&gt;" style="rounded=1;whiteSpace=wrap;html=1;fillColor=#dae8fc;strokeColor=#6c8ebf;" vertex="1" parent="1">
          <mxGeometry x="140" y="651" width="120" height="30" as="geometry" />
        </mxCell>
        <mxCell id="uRRemZE__AZd1bPF2sze-6" value="" style="endArrow=classic;html=1;rounded=0;" edge="1" parent="1">
          <mxGeometry width="50" height="50" relative="1" as="geometry">
            <mxPoint x="200" y="651" as="sourcePoint" />
            <mxPoint x="199.5" y="621" as="targetPoint" />
            <Array as="points" />
          </mxGeometry>
        </mxCell>
        <mxCell id="uRRemZE__AZd1bPF2sze-7" value="" style="endArrow=classic;html=1;rounded=0;" edge="1" parent="1">
          <mxGeometry width="50" height="50" relative="1" as="geometry">
            <mxPoint x="198" y="349" as="sourcePoint" />
            <mxPoint x="197.5" y="319" as="targetPoint" />
            <Array as="points" />
          </mxGeometry>
        </mxCell>
        <mxCell id="uRRemZE__AZd1bPF2sze-8" value="" style="endArrow=classic;html=1;rounded=0;" edge="1" parent="1">
          <mxGeometry width="50" height="50" relative="1" as="geometry">
            <mxPoint x="198" y="289" as="sourcePoint" />
            <mxPoint x="197.5" y="259" as="targetPoint" />
            <Array as="points" />
          </mxGeometry>
        </mxCell>
        <mxCell id="uRRemZE__AZd1bPF2sze-9" value="" style="endArrow=classic;html=1;rounded=0;" edge="1" parent="1">
          <mxGeometry width="50" height="50" relative="1" as="geometry">
            <mxPoint x="200" y="711" as="sourcePoint" />
            <mxPoint x="199.5" y="681" as="targetPoint" />
            <Array as="points" />
          </mxGeometry>
        </mxCell>
        <mxCell id="uRRemZE__AZd1bPF2sze-10" value="" style="endArrow=classic;html=1;rounded=0;" edge="1" parent="1">
          <mxGeometry width="50" height="50" relative="1" as="geometry">
            <mxPoint x="198" y="230" as="sourcePoint" />
            <mxPoint x="197.5" y="200" as="targetPoint" />
            <Array as="points" />
          </mxGeometry>
        </mxCell>
        <mxCell id="uRRemZE__AZd1bPF2sze-11" value="" style="shape=waypoint;sketch=0;fillStyle=solid;size=6;pointerEvents=1;points=[];fillColor=none;resizable=0;rotatable=0;perimeter=centerPerimeter;snapToPoint=1;" vertex="1" parent="1">
          <mxGeometry x="189" y="493" width="20" height="20" as="geometry" />
        </mxCell>
        <mxCell id="uRRemZE__AZd1bPF2sze-12" value="" style="shape=waypoint;sketch=0;fillStyle=solid;size=6;pointerEvents=1;points=[];fillColor=none;resizable=0;rotatable=0;perimeter=centerPerimeter;snapToPoint=1;" vertex="1" parent="1">
          <mxGeometry x="189" y="503" width="20" height="20" as="geometry" />
        </mxCell>
        <mxCell id="uRRemZE__AZd1bPF2sze-13" value="" style="shape=waypoint;sketch=0;fillStyle=solid;size=6;pointerEvents=1;points=[];fillColor=none;resizable=0;rotatable=0;perimeter=centerPerimeter;snapToPoint=1;" vertex="1" parent="1">
          <mxGeometry x="189" y="513" width="20" height="20" as="geometry" />
        </mxCell>
        <mxCell id="uRRemZE__AZd1bPF2sze-14" value="" style="endArrow=classic;html=1;rounded=0;" edge="1" parent="1">
          <mxGeometry width="50" height="50" relative="1" as="geometry">
            <mxPoint x="200" y="571" as="sourcePoint" />
            <mxPoint x="199.5" y="541" as="targetPoint" />
            <Array as="points" />
          </mxGeometry>
        </mxCell>
        <mxCell id="uRRemZE__AZd1bPF2sze-15" value="" style="endArrow=classic;html=1;rounded=0;" edge="1" parent="1">
          <mxGeometry width="50" height="50" relative="1" as="geometry">
            <mxPoint x="200" y="491" as="sourcePoint" />
            <mxPoint x="199.5" y="461" as="targetPoint" />
            <Array as="points" />
          </mxGeometry>
        </mxCell>
        <mxCell id="uRRemZE__AZd1bPF2sze-16" value="&lt;span style=&quot;font-size: 15px;&quot;&gt;Transformer block #N&lt;/span&gt;" style="rounded=1;whiteSpace=wrap;html=1;fillColor=#ffe6cc;strokeColor=#d79b00;" vertex="1" parent="1">
          <mxGeometry x="140" y="410" width="120" height="50" as="geometry" />
        </mxCell>
        <mxCell id="uRRemZE__AZd1bPF2sze-18" value="" style="verticalLabelPosition=bottom;verticalAlign=top;html=1;shape=mxgraph.flowchart.summing_function;" vertex="1" parent="1">
          <mxGeometry x="190" y="712" width="20" height="20" as="geometry" />
        </mxCell>
        <mxCell id="uRRemZE__AZd1bPF2sze-19" value="" style="endArrow=classic;html=1;rounded=0;" edge="1" parent="1">
          <mxGeometry width="50" height="50" relative="1" as="geometry">
            <mxPoint x="200" y="761" as="sourcePoint" />
            <mxPoint x="199.5" y="731" as="targetPoint" />
            <Array as="points" />
          </mxGeometry>
        </mxCell>
        <mxCell id="uRRemZE__AZd1bPF2sze-20" value="&lt;span style=&quot;font-size: 15px;&quot;&gt;Positional embedding&lt;/span&gt;" style="rounded=1;whiteSpace=wrap;html=1;fillColor=#e3c800;strokeColor=#B09500;fontColor=#000000;" vertex="1" parent="1">
          <mxGeometry x="290" y="697" width="120" height="50" as="geometry" />
        </mxCell>
        <mxCell id="uRRemZE__AZd1bPF2sze-21" value="&lt;span style=&quot;font-size: 15px;&quot;&gt;Token embedding&lt;/span&gt;" style="rounded=1;whiteSpace=wrap;html=1;fillColor=#e3c800;strokeColor=#B09500;fontColor=#000000;" vertex="1" parent="1">
          <mxGeometry x="140" y="757" width="120" height="50" as="geometry" />
        </mxCell>
        <mxCell id="uRRemZE__AZd1bPF2sze-22" value="" style="endArrow=classic;html=1;rounded=0;" edge="1" parent="1">
          <mxGeometry width="50" height="50" relative="1" as="geometry">
            <mxPoint x="290" y="722" as="sourcePoint" />
            <mxPoint x="209" y="721.5" as="targetPoint" />
          </mxGeometry>
        </mxCell>
        <mxCell id="uRRemZE__AZd1bPF2sze-23" value="" style="endArrow=classic;html=1;rounded=0;" edge="1" parent="1">
          <mxGeometry width="50" height="50" relative="1" as="geometry">
            <mxPoint x="200" y="411" as="sourcePoint" />
            <mxPoint x="199.5" y="381" as="targetPoint" />
            <Array as="points" />
          </mxGeometry>
        </mxCell>
        <mxCell id="uRRemZE__AZd1bPF2sze-24" value="" style="endArrow=classic;html=1;rounded=0;" edge="1" parent="1">
          <mxGeometry width="50" height="50" relative="1" as="geometry">
            <mxPoint x="200" y="837" as="sourcePoint" />
            <mxPoint x="199.5" y="807" as="targetPoint" />
            <Array as="points" />
          </mxGeometry>
        </mxCell>
        <mxCell id="uRRemZE__AZd1bPF2sze-25" value="&lt;b&gt;Input&lt;/b&gt;" style="text;strokeColor=none;align=center;fillColor=none;html=1;verticalAlign=middle;whiteSpace=wrap;rounded=0;fontSize=15;" vertex="1" parent="1">
          <mxGeometry x="145" y="836" width="110" height="30" as="geometry" />
        </mxCell>
        <mxCell id="uRRemZE__AZd1bPF2sze-26" value="&lt;b&gt;Output&lt;/b&gt;" style="text;strokeColor=none;align=center;fillColor=none;html=1;verticalAlign=middle;whiteSpace=wrap;rounded=0;fontSize=15;" vertex="1" parent="1">
          <mxGeometry x="145" y="162" width="110" height="30" as="geometry" />
        </mxCell>
        <mxCell id="JpCkZfE_wNS0pkhParrr-1" value="" style="shape=curlyBracket;whiteSpace=wrap;html=1;rounded=1;labelPosition=left;verticalLabelPosition=middle;align=right;verticalAlign=middle;" vertex="1" parent="1">
          <mxGeometry x="105" y="445" width="20" height="140" as="geometry" />
        </mxCell>
        <mxCell id="9-_2z_XPBQNERmZIZ8aD-1" value="N" style="text;strokeColor=none;align=center;fillColor=none;html=1;verticalAlign=middle;whiteSpace=wrap;rounded=0;fontSize=15;" vertex="1" parent="1">
          <mxGeometry x="40" y="499" width="110" height="30" as="geometry" />
        </mxCell>
      </root>
    </mxGraphModel>
  </diagram>
  <diagram id="3vwWWqSM3rSA0xKBbsQm" name="Page-3">
    <mxGraphModel grid="1" page="1" gridSize="10" guides="1" tooltips="1" connect="1" arrows="1" fold="1" pageScale="1" pageWidth="850" pageHeight="1100" math="0" shadow="0">
      <root>
        <mxCell id="0" />
        <mxCell id="1" parent="0" />
        <mxCell id="L2cyWR59lEIE1tOUVg9w-1" value="" style="rounded=1;whiteSpace=wrap;html=1;fillColor=#ffe6cc;strokeColor=#d79b00;" vertex="1" parent="1">
          <mxGeometry x="237" y="250" width="268" height="530" as="geometry" />
        </mxCell>
        <mxCell id="L2cyWR59lEIE1tOUVg9w-2" value="&lt;font style=&quot;font-size: 15px;&quot;&gt;Dropout&lt;/font&gt;" style="rounded=1;whiteSpace=wrap;html=1;fillColor=#dae8fc;strokeColor=#6c8ebf;" vertex="1" parent="1">
          <mxGeometry x="311" y="307" width="120" height="30" as="geometry" />
        </mxCell>
        <mxCell id="L2cyWR59lEIE1tOUVg9w-3" value="&lt;font style=&quot;font-size: 15px;&quot;&gt;FC&lt;/font&gt;" style="rounded=1;whiteSpace=wrap;html=1;fillColor=#f8cecc;strokeColor=#b85450;" vertex="1" parent="1">
          <mxGeometry x="311" y="430" width="120" height="30" as="geometry" />
        </mxCell>
        <mxCell id="L2cyWR59lEIE1tOUVg9w-4" value="&lt;font style=&quot;font-size: 15px;&quot;&gt;LayerNorm&lt;/font&gt;" style="rounded=1;whiteSpace=wrap;html=1;fillColor=#008a00;fontColor=#ffffff;strokeColor=#005700;" vertex="1" parent="1">
          <mxGeometry x="311" y="490" width="120" height="30" as="geometry" />
        </mxCell>
        <mxCell id="L2cyWR59lEIE1tOUVg9w-5" value="&lt;font style=&quot;font-size: 15px;&quot;&gt;Dropout&lt;/font&gt;" style="rounded=1;whiteSpace=wrap;html=1;fillColor=#dae8fc;strokeColor=#6c8ebf;" vertex="1" parent="1">
          <mxGeometry x="311" y="580" width="120" height="30" as="geometry" />
        </mxCell>
        <mxCell id="L2cyWR59lEIE1tOUVg9w-6" value="&lt;font style=&quot;font-size: 15px;&quot;&gt;Multi-Head&lt;/font&gt;&lt;div&gt;&lt;font style=&quot;font-size: 15px;&quot;&gt;Attention&lt;/font&gt;&lt;/div&gt;" style="rounded=1;whiteSpace=wrap;html=1;fillColor=#d5e8d4;strokeColor=#82b366;" vertex="1" parent="1">
          <mxGeometry x="311" y="640" width="120" height="50" as="geometry" />
        </mxCell>
        <mxCell id="L2cyWR59lEIE1tOUVg9w-7" value="&lt;font style=&quot;font-size: 15px;&quot;&gt;LayerNorm&lt;/font&gt;" style="rounded=1;whiteSpace=wrap;html=1;fillColor=#008a00;fontColor=#ffffff;strokeColor=#005700;" vertex="1" parent="1">
          <mxGeometry x="311" y="720" width="120" height="30" as="geometry" />
        </mxCell>
        <mxCell id="L2cyWR59lEIE1tOUVg9w-8" value="" style="endArrow=classic;html=1;rounded=0;" edge="1" parent="1">
          <mxGeometry width="50" height="50" relative="1" as="geometry">
            <mxPoint x="371" y="720" as="sourcePoint" />
            <mxPoint x="370.5" y="690" as="targetPoint" />
            <Array as="points" />
          </mxGeometry>
        </mxCell>
        <mxCell id="L2cyWR59lEIE1tOUVg9w-9" value="" style="endArrow=classic;html=1;rounded=0;" edge="1" parent="1">
          <mxGeometry width="50" height="50" relative="1" as="geometry">
            <mxPoint x="371" y="640" as="sourcePoint" />
            <mxPoint x="370.5" y="610" as="targetPoint" />
            <Array as="points" />
          </mxGeometry>
        </mxCell>
        <mxCell id="L2cyWR59lEIE1tOUVg9w-10" value="" style="endArrow=classic;html=1;rounded=0;" edge="1" parent="1">
          <mxGeometry width="50" height="50" relative="1" as="geometry">
            <mxPoint x="370" y="580" as="sourcePoint" />
            <mxPoint x="369.5" y="560" as="targetPoint" />
            <Array as="points" />
          </mxGeometry>
        </mxCell>
        <mxCell id="L2cyWR59lEIE1tOUVg9w-11" value="" style="endArrow=classic;html=1;rounded=0;" edge="1" parent="1">
          <mxGeometry width="50" height="50" relative="1" as="geometry">
            <mxPoint x="369" y="540" as="sourcePoint" />
            <mxPoint x="368.5" y="520" as="targetPoint" />
            <Array as="points" />
          </mxGeometry>
        </mxCell>
        <mxCell id="L2cyWR59lEIE1tOUVg9w-12" value="" style="endArrow=classic;html=1;rounded=0;" edge="1" parent="1">
          <mxGeometry width="50" height="50" relative="1" as="geometry">
            <mxPoint x="369" y="489" as="sourcePoint" />
            <mxPoint x="368.5" y="459" as="targetPoint" />
            <Array as="points" />
          </mxGeometry>
        </mxCell>
        <mxCell id="L2cyWR59lEIE1tOUVg9w-13" value="" style="endArrow=classic;html=1;rounded=0;" edge="1" parent="1">
          <mxGeometry width="50" height="50" relative="1" as="geometry">
            <mxPoint x="369" y="429" as="sourcePoint" />
            <mxPoint x="368.5" y="399" as="targetPoint" />
            <Array as="points" />
          </mxGeometry>
        </mxCell>
        <mxCell id="L2cyWR59lEIE1tOUVg9w-14" value="" style="endArrow=classic;html=1;rounded=0;exitX=0.5;exitY=0;exitDx=0;exitDy=0;" edge="1" parent="1" source="L2cyWR59lEIE1tOUVg9w-24">
          <mxGeometry width="50" height="50" relative="1" as="geometry">
            <mxPoint x="371" y="790" as="sourcePoint" />
            <mxPoint x="370.5" y="750" as="targetPoint" />
            <Array as="points" />
          </mxGeometry>
        </mxCell>
        <mxCell id="L2cyWR59lEIE1tOUVg9w-15" value="" style="endArrow=classic;html=1;rounded=0;" edge="1" parent="1">
          <mxGeometry width="50" height="50" relative="1" as="geometry">
            <mxPoint x="368" y="258" as="sourcePoint" />
            <mxPoint x="367.5" y="228" as="targetPoint" />
            <Array as="points" />
          </mxGeometry>
        </mxCell>
        <mxCell id="L2cyWR59lEIE1tOUVg9w-16" value="" style="verticalLabelPosition=bottom;verticalAlign=top;html=1;shape=mxgraph.flowchart.summing_function;" vertex="1" parent="1">
          <mxGeometry x="359" y="540" width="20" height="20" as="geometry" />
        </mxCell>
        <mxCell id="L2cyWR59lEIE1tOUVg9w-17" value="" style="endArrow=classic;html=1;rounded=0;" edge="1" parent="1">
          <mxGeometry width="50" height="50" relative="1" as="geometry">
            <mxPoint x="472" y="550" as="sourcePoint" />
            <mxPoint x="380" y="549.5" as="targetPoint" />
          </mxGeometry>
        </mxCell>
        <mxCell id="L2cyWR59lEIE1tOUVg9w-18" value="" style="endArrow=none;html=1;rounded=0;" edge="1" parent="1">
          <mxGeometry width="50" height="50" relative="1" as="geometry">
            <mxPoint x="471" y="764" as="sourcePoint" />
            <mxPoint x="471" y="550" as="targetPoint" />
          </mxGeometry>
        </mxCell>
        <mxCell id="L2cyWR59lEIE1tOUVg9w-19" value="" style="endArrow=none;html=1;rounded=0;" edge="1" parent="1">
          <mxGeometry width="50" height="50" relative="1" as="geometry">
            <mxPoint x="371" y="763" as="sourcePoint" />
            <mxPoint x="451" y="763" as="targetPoint" />
            <Array as="points">
              <mxPoint x="451" y="763" />
              <mxPoint x="471" y="763" />
            </Array>
          </mxGeometry>
        </mxCell>
        <mxCell id="L2cyWR59lEIE1tOUVg9w-20" value="" style="verticalLabelPosition=bottom;verticalAlign=top;html=1;shape=mxgraph.flowchart.summing_function;" vertex="1" parent="1">
          <mxGeometry x="358" y="258" width="20" height="20" as="geometry" />
        </mxCell>
        <mxCell id="L2cyWR59lEIE1tOUVg9w-21" value="" style="endArrow=classic;html=1;rounded=0;" edge="1" parent="1">
          <mxGeometry width="50" height="50" relative="1" as="geometry">
            <mxPoint x="470" y="268" as="sourcePoint" />
            <mxPoint x="378" y="267.5" as="targetPoint" />
          </mxGeometry>
        </mxCell>
        <mxCell id="L2cyWR59lEIE1tOUVg9w-22" value="" style="endArrow=classic;html=1;rounded=0;" edge="1" parent="1">
          <mxGeometry width="50" height="50" relative="1" as="geometry">
            <mxPoint x="369" y="307" as="sourcePoint" />
            <mxPoint x="368.5" y="277" as="targetPoint" />
            <Array as="points" />
          </mxGeometry>
        </mxCell>
        <mxCell id="L2cyWR59lEIE1tOUVg9w-23" value="" style="endArrow=none;html=1;rounded=0;" edge="1" parent="1">
          <mxGeometry width="50" height="50" relative="1" as="geometry">
            <mxPoint x="370" y="536" as="sourcePoint" />
            <mxPoint x="450" y="536" as="targetPoint" />
            <Array as="points">
              <mxPoint x="450" y="536" />
              <mxPoint x="470" y="536" />
            </Array>
          </mxGeometry>
        </mxCell>
        <mxCell id="L2cyWR59lEIE1tOUVg9w-24" value="&lt;b&gt;Block input&lt;/b&gt;" style="text;strokeColor=none;align=center;fillColor=none;html=1;verticalAlign=middle;whiteSpace=wrap;rounded=0;fontSize=15;" vertex="1" parent="1">
          <mxGeometry x="316" y="792" width="110" height="30" as="geometry" />
        </mxCell>
        <mxCell id="L2cyWR59lEIE1tOUVg9w-25" value="&lt;b&gt;Block output&lt;/b&gt;" style="text;strokeColor=none;align=center;fillColor=none;html=1;verticalAlign=middle;whiteSpace=wrap;rounded=0;fontSize=15;" vertex="1" parent="1">
          <mxGeometry x="316" y="199" width="110" height="30" as="geometry" />
        </mxCell>
        <mxCell id="L2cyWR59lEIE1tOUVg9w-26" value="&lt;font style=&quot;font-size: 15px;&quot;&gt;FC&lt;/font&gt;" style="rounded=1;whiteSpace=wrap;html=1;fillColor=#f8cecc;strokeColor=#b85450;" vertex="1" parent="1">
          <mxGeometry x="311" y="368" width="120" height="30" as="geometry" />
        </mxCell>
        <mxCell id="L2cyWR59lEIE1tOUVg9w-27" value="" style="endArrow=classic;html=1;rounded=0;" edge="1" parent="1">
          <mxGeometry width="50" height="50" relative="1" as="geometry">
            <mxPoint x="369" y="367" as="sourcePoint" />
            <mxPoint x="368.5" y="337" as="targetPoint" />
            <Array as="points" />
          </mxGeometry>
        </mxCell>
        <mxCell id="wGFGGcgUdgSCq7hCrYAi-1" value="" style="endArrow=none;html=1;rounded=0;" edge="1" parent="1">
          <mxGeometry width="50" height="50" relative="1" as="geometry">
            <mxPoint x="470" y="267" as="sourcePoint" />
            <mxPoint x="470" y="537" as="targetPoint" />
          </mxGeometry>
        </mxCell>
      </root>
    </mxGraphModel>
  </diagram>
</mxfile>
